<svg width="20" height="20" viewBox="0 0 20 20" fill="none" xmlns="http://www.w3.org/2000/svg">
<path fill-rule="evenodd" clip-rule="evenodd" d="M1.66675 5.83329C1.66675 3.53211 3.53223 1.66663 5.83341 1.66663H14.1667C16.4679 1.66663 18.3334 3.53211 18.3334 5.83329V14.1666C18.3334 16.4678 16.4679 18.3333 14.1667 18.3333H5.83341C3.53223 18.3333 1.66675 16.4678 1.66675 14.1666V5.83329ZM5.83341 3.33329C4.4527 3.33329 3.33341 4.45258 3.33341 5.83329V14.1666C3.33341 15.5473 4.4527 16.6666 5.83341 16.6666H14.1667C15.5475 16.6666 16.6667 15.5473 16.6667 14.1666V5.83329C16.6667 4.45258 15.5475 3.33329 14.1667 3.33329H5.83341Z" fill="#3958A6"/>
<path fill-rule="evenodd" clip-rule="evenodd" d="M9.99992 5.83337C10.4602 5.83337 10.8333 6.20647 10.8333 6.66671V11.3215L12.744 9.41078C13.0694 9.08535 13.5971 9.08535 13.9225 9.41078C14.2479 9.73622 14.2479 10.2639 13.9225 10.5893L10.5892 13.9226C10.4329 14.0789 10.2209 14.1667 9.99992 14.1667C9.7789 14.1667 9.56694 14.0789 9.41066 13.9226L6.07733 10.5893C5.75189 10.2639 5.75189 9.73622 6.07733 9.41079C6.40277 9.08535 6.9304 9.08535 7.25584 9.41079L9.16659 11.3215L9.16658 6.66671C9.16658 6.20647 9.53968 5.83337 9.99992 5.83337Z" fill="#3958A6"/>
</svg>
