<svg width="20" height="20" viewBox="0 0 20 20" fill="none" xmlns="http://www.w3.org/2000/svg">
<path fill-rule="evenodd" clip-rule="evenodd" d="M1.66675 14.1667C1.66675 16.4679 3.53223 18.3334 5.83341 18.3334H14.1667C16.4679 18.3334 18.3334 16.4679 18.3334 14.1667V5.83337C18.3334 3.53219 16.4679 1.66671 14.1667 1.66671H5.83341C3.53223 1.66671 1.66675 3.53219 1.66675 5.83337V14.1667ZM5.83341 16.6667C4.4527 16.6667 3.33341 15.5474 3.33341 14.1667V5.83337C3.33341 4.45266 4.4527 3.33337 5.83341 3.33337H14.1667C15.5475 3.33337 16.6667 4.45266 16.6667 5.83337V14.1667C16.6667 15.5474 15.5475 16.6667 14.1667 16.6667H5.83341Z" fill="#3958A6"/>
<path fill-rule="evenodd" clip-rule="evenodd" d="M9.99992 14.1666C10.4602 14.1666 10.8333 13.7935 10.8333 13.3333V8.67847L12.744 10.5892C13.0694 10.9147 13.5971 10.9147 13.9225 10.5892C14.2479 10.2638 14.2479 9.73614 13.9225 9.4107L10.5892 6.07737C10.4329 5.92109 10.2209 5.83329 9.99992 5.83329C9.7789 5.83329 9.56694 5.92109 9.41066 6.07737L6.07733 9.4107C5.75189 9.73614 5.75189 10.2638 6.07733 10.5892C6.40277 10.9147 6.9304 10.9147 7.25584 10.5892L9.16659 8.67847L9.16658 13.3333C9.16658 13.7935 9.53968 14.1666 9.99992 14.1666Z" fill="#3958A6"/>
</svg>
