<svg width="343" height="343" viewBox="0 0 343 343" fill="none" xmlns="http://www.w3.org/2000/svg">
<path d="M227.233 175.834C213.768 176.23 193.467 171.072 182.046 163.91L182.048 163.903C180.545 162.961 178.655 161.737 177.439 160.457C176.998 159.993 176.745 159.6 176.396 159.092C153.92 173.71 126.421 179.893 99.8545 176.869C88.5874 175.587 79.2292 172.858 68.5413 169.423C65.4298 168.424 62.7629 167.105 60.2146 170.038C56.109 174.76 57.1943 190.043 59.3322 195.551L62.6095 207.531C61.3612 212.108 66.9385 223.818 69.5609 227.899C71.3764 230.727 76.5512 237.336 79.8928 237.885L89.0756 253.621C89.6016 256.27 93.7246 260.194 95.7346 262.068C100.213 266.243 105.868 270.309 111.418 272.906C113.07 273.68 116.097 275.186 117.872 274.583C122.727 279.665 128.723 280.962 131.113 280.975C134.71 283.669 145.756 285.936 150.42 286.735C157.213 287.899 167.997 289.109 174.738 288.176C177.753 288.926 185.348 289.595 191.607 286.275C193.8 287.057 201.302 285.47 203.788 284.877C208.786 283.686 219.312 280.438 223.299 277.424C231.621 274.311 237.695 269.22 239.692 267.063C240.969 266.43 243.192 264.339 244.265 263.284C251.748 255.932 253.174 248.065 253.303 237.911C253.521 220.772 249.327 204.315 242.947 188.464C241.024 183.69 238.735 179.065 236.675 174.354C233.63 175.407 230.432 175.74 227.233 175.834Z" fill="url(#paint0_linear_3007_11359)"/>
<ellipse cx="171.5" cy="285.44" rx="98.4785" ry="22.9448" fill="black" fill-opacity="0.1"/>
<g filter="url(#filter0_f_3007_11359)">
<path d="M239.305 31.1448C277.158 37.4506 253.4 89.5238 237.033 153.974C220.666 218.423 197.441 268.142 185.159 265.023C172.877 261.904 176.188 207.128 192.555 142.678C208.922 78.2286 202.908 30.5392 239.305 31.1448Z" fill="black" fill-opacity="0.1"/>
</g>
<g filter="url(#filter1_f_3007_11359)">
<path d="M69.8332 232.345C51.677 144.392 102.007 159.887 156.537 150.311C211.067 140.734 259.444 156.722 264.589 186.02C269.735 215.319 229.701 246.833 175.171 256.41C120.641 265.987 91.0831 313.047 69.8332 232.345Z" fill="black" fill-opacity="0.1"/>
</g>
<g filter="url(#filter2_i_3007_11359)">
<path d="M182.721 164.267C194.561 170.712 215.141 174.611 228.556 173.388C231.743 173.097 234.914 172.568 237.889 171.33C240.234 175.905 242.804 180.381 245.017 185.027C252.36 200.456 257.559 216.624 258.396 233.743C258.892 243.886 257.952 251.826 250.936 259.624C249.93 260.744 247.84 262.968 246.604 263.678C244.266 265.024 243.952 263.298 243.93 261.383C243.871 256.131 243.952 251.373 243.418 246.08C241.632 228.398 236.755 213.839 229.804 197.582C229.696 197.33 229.644 197.079 229.335 196.994C234.619 217.289 237.571 238.866 235.396 259.77C234.95 264.066 234.237 272.148 230.879 275.028C227.085 278.281 216.779 282.171 211.865 283.667C209.42 284.412 202.029 286.457 199.793 285.812C198.141 285.335 198.539 284.033 198.81 282.744C199.356 280.153 200.37 277.606 201.033 275.035C204.605 261.197 206.243 246.83 205.613 232.519L203.154 243.687C199.495 257.129 195.065 271.45 188.282 283.678C186.981 286.025 185.871 288.182 183.072 288.747C176.402 290.093 165.564 289.549 158.712 288.804C154.007 288.294 142.843 286.712 139.087 284.244C137.026 282.889 138.952 281.038 140.097 279.72C141.884 277.665 144.052 275.769 145.911 273.746C151.422 267.749 156.807 261.229 161.41 254.51C166.252 247.439 170.231 239.852 173.834 232.095L168.262 239.627C157.682 252.953 145.171 264.788 131.326 274.73C129.918 275.741 126.907 278.093 125.477 278.678C123.743 279.39 120.629 278.072 118.932 277.402C113.233 275.151 107.339 271.44 102.612 267.549C100.491 265.803 96.1341 262.14 95.4461 259.527C94.4378 255.701 98.8942 255.132 101.526 253.933C104.235 252.698 106.972 251.413 109.628 250.068C134.445 237.502 154.983 218.54 169.725 195.104L161.569 203.395C143.049 220.66 120.393 234.262 96.108 241.768C93.4388 242.593 87.9138 244.652 85.3126 244.387C81.9435 244.044 76.372 237.766 74.3858 235.055C71.5174 231.143 65.2302 219.798 66.1945 215.154C66.4215 214.059 66.9292 213.488 67.9557 213.021C71.3417 212.525 74.7618 212.331 78.1539 211.901C90.3873 210.35 102.529 207.697 114.104 203.42C107.658 204.59 101.151 205.411 94.616 205.855C86.4278 206.409 77.818 206.468 69.6371 205.894C68.1075 205.786 66.1997 205.724 64.7254 205.415C63.251 205.107 62.8429 204.825 62.1863 203.398C59.7136 198.032 57.69 182.845 61.4974 177.879C63.8603 174.794 66.6034 175.947 69.7704 176.753C80.6495 179.523 90.1579 181.672 101.482 182.258C128.184 183.642 155.251 175.778 176.785 159.805C177.165 160.291 177.442 160.668 177.91 161.104C179.203 162.307 181.165 163.412 182.722 164.26L182.721 164.267Z" fill="url(#paint1_linear_3007_11359)"/>
</g>
<g filter="url(#filter3_i_3007_11359)">
<path d="M178.045 147.936C182.33 140.585 195.89 140.122 203.606 140.672L203.593 140.756C208.151 141.494 217.748 143.221 224.316 144.924L224.352 144.957C225.02 145.125 225.696 145.3 226.372 145.485C226.708 145.582 227.031 145.678 227.339 145.775L227.345 145.759C228.225 146.014 229.098 146.29 229.943 146.594C236.1 148.804 246.273 153.672 244.514 161.769C242.8 169.664 232.352 170.107 225.802 170.252C215.378 170.481 203.15 168.331 193.283 165.011L193.28 165.007C186.473 162.716 172.43 157.565 178.045 147.936ZM223.472 40.4725C236.098 32.3941 254.116 39.5495 254.147 55.4739C254.154 58.9955 253 62.5697 251.819 65.8501C246.901 79.5052 241.124 92.8531 236.302 106.565C232.132 118.421 228.406 130.412 224.789 142.444L215.608 140.112L206.115 138.644C207.573 130.408 208.497 122.056 209.315 113.734C210.742 99.2106 211.528 84.6331 212.742 70.0938C213.604 59.7635 213.675 46.74 223.472 40.4725Z" fill="#FBFDFF"/>
</g>
<g filter="url(#filter4_ii_3007_11359)">
<path d="M61.3274 177.706C63.6901 174.622 66.4332 175.774 69.5999 176.58C80.4789 179.35 89.9878 181.5 101.312 182.086C128.014 183.47 155.081 175.606 176.615 159.633C176.994 160.119 177.272 160.496 177.74 160.931C179.033 162.134 180.995 163.239 182.552 164.087L182.551 164.093C194.391 170.539 214.971 174.439 228.386 173.216C231.573 172.925 234.744 172.395 237.719 171.157C240.064 175.732 242.634 180.208 244.847 184.855C252.191 200.283 257.389 216.452 258.226 233.571C258.722 243.713 257.782 251.653 250.767 259.451C249.76 260.571 247.67 262.795 246.435 263.506C244.096 264.851 243.782 263.126 243.76 261.211C243.702 255.958 243.782 251.2 243.248 245.907C241.462 228.225 236.584 213.666 229.634 197.409C229.526 197.157 229.474 196.907 229.165 196.821C234.449 217.117 237.4 238.693 235.226 259.597C234.779 263.893 234.067 271.976 230.71 274.855C226.915 278.108 216.609 281.998 211.694 283.494C209.249 284.239 201.859 286.284 199.623 285.639C197.971 285.163 198.37 283.861 198.64 282.571C199.186 279.981 200.2 277.433 200.863 274.863C204.435 261.024 206.073 246.657 205.443 232.347L202.984 243.514C199.326 256.956 194.894 271.277 188.111 283.506C186.81 285.852 185.701 288.009 182.903 288.575C176.232 289.92 165.394 289.376 158.542 288.631C153.838 288.121 142.673 286.539 138.917 284.071C136.856 282.716 138.781 280.864 139.927 279.547C141.713 277.492 143.882 275.597 145.741 273.574C151.252 267.577 156.637 261.056 161.24 254.337C166.082 247.266 170.061 239.68 173.664 231.923L168.092 239.454C157.512 252.78 145.001 264.615 131.156 274.557C129.748 275.568 126.737 277.92 125.307 278.505C123.573 279.217 120.459 277.899 118.762 277.228C113.063 274.978 107.169 271.268 102.442 267.377C100.321 265.63 95.9642 261.967 95.2758 259.355C94.2675 255.529 98.7245 254.959 101.356 253.76C104.065 252.525 106.802 251.241 109.458 249.896C134.275 237.329 154.813 218.368 169.556 194.931L161.399 203.223C142.88 220.488 120.224 234.09 95.9384 241.596C93.2693 242.42 87.744 244.48 85.1427 244.214C81.7737 243.871 76.2022 237.594 74.2159 234.883C71.3475 230.971 65.06 219.625 66.0243 214.981C66.2514 213.886 66.7591 213.315 67.7853 212.848C71.1713 212.352 74.5916 212.158 77.9836 211.728C90.2169 210.177 102.359 207.524 113.934 203.247C107.488 204.417 100.981 205.238 94.4459 205.682C86.2577 206.236 77.6478 206.294 69.4669 205.721C67.9375 205.613 66.03 205.551 64.5558 205.242C63.0815 204.934 62.6728 204.652 62.0162 203.225C59.5435 197.858 57.5201 182.671 61.3274 177.706Z" fill="url(#paint2_linear_3007_11359)"/>
</g>
<g opacity="0.5" style="mix-blend-mode:overlay">
<path d="M224.26 169.706C224.695 169.683 225.124 169.655 225.546 169.621C228.736 169.369 231.913 168.879 234.903 167.678C237.192 172.281 239.707 176.788 241.863 181.461C249.017 196.978 254.019 213.209 254.646 230.337C255.017 240.485 253.98 248.413 246.869 256.125C245.849 257.232 243.732 259.43 242.488 260.126C240.6 262.378 234.784 267.762 226.625 271.281C222.791 274.488 212.44 278.252 207.507 279.688C205.053 280.403 197.638 282.357 195.409 281.685C189.322 285.309 181.703 285.015 178.654 284.415C171.968 285.679 161.137 285.003 154.295 284.175C149.597 283.607 138.452 281.888 134.727 279.374C132.339 279.479 126.287 278.479 121.187 273.642C119.444 274.332 116.347 272.977 114.658 272.286C108.987 269.966 103.139 266.183 98.4597 262.234C96.5006 260.581 92.6172 257.235 91.5724 254.666C92.7747 255.275 93.9801 255.835 95.1793 256.325C96.8682 257.017 99.9659 258.372 101.709 257.682C106.809 262.518 112.86 263.518 115.249 263.413C118.974 265.927 130.118 267.646 134.816 268.214C141.658 269.042 152.489 269.718 159.176 268.454C162.224 269.054 169.844 269.348 175.931 265.725C178.16 266.397 185.575 264.442 188.028 263.728C192.961 262.292 203.313 258.528 207.147 255.321C215.305 251.802 221.122 246.418 223.01 244.165C224.254 243.47 226.37 241.272 227.39 240.164C234.501 232.453 235.538 224.525 235.167 214.377C234.596 198.789 230.401 183.946 224.26 169.706Z" fill="#002E5F"/>
</g>
<mask id="mask0_3007_11359" style="mask-type:alpha" maskUnits="userSpaceOnUse" x="57" y="156" width="197" height="131">
<path d="M227.726 173.179C214.261 173.574 193.96 168.417 182.539 161.255L182.54 161.248C181.038 160.305 179.148 159.082 177.932 157.802C177.491 157.338 177.238 156.945 176.889 156.437C154.413 171.054 126.913 177.238 100.347 174.213C89.0801 172.932 79.7219 170.203 69.0339 166.768C65.9225 165.768 63.2555 164.45 60.7073 167.382C56.6017 172.105 57.687 187.388 59.8248 192.896L63.1022 204.876C61.8539 209.452 67.4312 221.163 70.0535 225.243C71.8691 228.072 77.0439 234.68 80.3855 235.23L89.5682 250.965C90.0943 253.615 94.2172 257.539 96.2273 259.413C100.706 263.587 106.36 267.654 111.91 270.251C113.563 271.024 116.59 272.531 118.364 271.927C123.22 277.01 129.215 278.307 131.606 278.32C135.202 281.014 146.249 283.281 150.913 284.079C157.706 285.244 168.49 286.454 175.231 285.521C178.246 286.27 185.841 286.939 192.1 283.62C194.292 284.402 201.795 282.815 204.281 282.222C209.278 281.031 219.804 277.783 223.791 274.769C232.114 271.656 238.188 266.565 240.185 264.408C241.462 263.775 243.684 261.684 244.758 260.629C252.24 253.277 253.667 245.409 253.796 235.256C254.014 218.117 249.82 201.66 243.44 185.809C241.517 181.035 239.227 176.409 237.168 171.699C234.122 172.751 230.924 173.084 227.726 173.179Z" fill="url(#paint3_linear_3007_11359)"/>
</mask>
<g mask="url(#mask0_3007_11359)">
<g opacity="0.5" style="mix-blend-mode:overlay">
<path d="M311.835 8.57909C312.99 8.81635 314.131 9.03558 315.257 9.23695C323.783 10.7609 332.439 11.6515 341.09 10.5526C343.934 24.1723 347.433 37.696 349.881 51.4076C357.992 96.9337 359.979 142.854 349.9 188.132C343.927 214.958 335.786 235.007 311.889 250.334C308.46 252.535 301.414 256.841 297.68 257.81C291.195 262.416 272.282 272.535 248.51 276.166C236.278 281.939 206.593 284.708 192.694 285.092C185.78 285.284 165.027 285.327 159.653 282.041C141.233 287.364 121.484 281.381 113.912 277.724C95.5391 276.457 67.6431 267.274 50.2946 260.422C38.3819 255.721 10.3772 243.593 2.34437 234.462C-3.9812 233.101 -19.143 226.341 -29.188 210.185C-34.2238 210.8 -41.4066 205.132 -45.3555 202.166C-58.6168 192.21 -71.3406 178.303 -80.8899 164.762C-84.8864 159.094 -92.7612 147.685 -93.7449 140.242C-91.0152 142.659 -88.2374 144.941 -85.4348 147.045C-81.4859 150.011 -74.3039 155.679 -69.2682 155.065C-59.2232 171.22 -44.0606 177.979 -37.735 179.34C-29.7021 188.471 -1.69743 200.599 10.2152 205.3C27.5637 212.152 55.4597 221.335 73.8328 222.603C81.4046 226.259 101.153 232.243 119.573 226.921C124.947 230.206 145.7 230.162 152.615 229.97C166.513 229.586 196.197 226.817 208.43 221.044C232.202 217.413 251.115 207.294 257.6 202.688C261.334 201.719 268.381 197.413 271.81 195.212C295.707 179.885 303.847 159.836 309.82 133.01C318.993 91.8045 318.171 50.0673 311.835 8.57909Z" fill="#002E5F"/>
</g>
<g opacity="0.5" style="mix-blend-mode:overlay">
<path d="M58.8227 170.058C61.2232 167.004 63.9524 168.19 67.1092 169.034C77.9534 171.938 87.4353 174.203 98.7517 174.927C125.434 176.638 152.595 169.106 174.323 153.397C174.696 153.888 174.969 154.268 175.432 154.71C176.71 155.928 178.658 157.057 180.206 157.924L180.204 157.931C191.964 164.521 212.494 168.672 225.923 167.613C229.114 167.361 232.292 166.87 235.282 165.669C237.571 170.272 240.085 174.78 242.241 179.453C242.404 179.807 242.565 180.163 242.726 180.518C241.962 180.613 241.194 180.688 240.426 180.749C226.997 181.808 206.467 177.658 194.707 171.068L194.707 171.06C193.16 170.193 191.213 169.064 189.935 167.846C189.472 167.404 189.199 167.024 188.826 166.534C167.097 182.242 139.936 189.774 113.254 188.063C101.937 187.339 92.4561 185.074 81.612 182.171C78.4552 181.326 75.7259 180.14 73.3255 183.194C69.4577 188.113 71.2957 203.325 73.7025 208.721L77.5658 220.525C76.5448 225.157 82.6928 236.579 85.5131 240.525C87.466 243.26 92.9601 249.605 96.3248 249.989L106.272 265.252C106.316 265.427 106.376 265.606 106.45 265.789C103.736 264.078 101.144 262.172 98.8374 260.226C96.7374 258.453 92.4257 254.737 91.7697 252.116L81.822 236.853C78.4574 236.469 72.9632 230.124 71.0103 227.389C68.19 223.442 62.0428 212.021 63.0639 207.389L59.1994 195.584C56.7926 190.188 54.955 174.977 58.8227 170.058Z" fill="#002E5F"/>
</g>
<g opacity="0.5" style="mix-blend-mode:overlay">
<path d="M203.165 -114.607C204.333 -114.764 205.483 -114.933 206.612 -115.114C215.164 -116.483 223.631 -118.494 231.437 -122.381C238.608 -110.458 246.368 -98.8421 253.195 -86.7018C275.851 -46.3886 292.852 -3.68527 298.25 42.3862C301.447 69.6822 300.365 91.2941 282.85 113.637C280.337 116.845 275.103 123.232 271.897 125.376C267.291 131.861 252.767 147.646 231.517 158.905C221.869 168.385 194.754 180.777 181.758 185.718C175.293 188.177 155.711 195.054 149.555 193.722C133.916 204.815 113.299 205.672 104.945 204.713C87.1795 209.569 57.8154 210.087 39.1783 209.332C26.3816 208.817 -4.05509 206.591 -14.6474 200.615C-21.068 201.415 -37.6103 200.026 -52.4161 188.082C-56.9683 190.321 -65.6179 187.334 -70.3235 185.834C-86.1241 180.803 -102.719 171.863 -116.196 162.223C-121.836 158.188 -133.03 150.009 -136.41 143.307C-133.037 144.689 -129.663 145.928 -126.323 146.991C-121.618 148.491 -112.969 151.478 -108.417 149.239C-93.6109 161.184 -77.0678 162.571 -70.6472 161.772C-60.0547 167.748 -29.618 169.974 -16.8216 170.489C1.81562 171.244 31.1797 170.725 48.9449 165.87C57.2987 166.828 77.9154 165.972 93.5539 154.879C99.7104 156.211 119.292 149.334 125.757 146.875C138.753 141.934 165.868 129.542 175.517 120.062C196.766 108.803 211.29 93.0187 215.896 86.5337C219.102 84.389 224.338 78.0015 226.85 74.7937C244.365 52.4509 245.447 30.8389 242.25 3.54292C237.338 -38.3847 222.813 -77.5217 203.165 -114.607Z" fill="white"/>
</g>
<path d="M122.497 208.834L124.576 211.881L128.256 211.614L125.208 213.693L125.476 217.373L123.397 214.325L119.717 214.593L122.765 212.513L122.497 208.834Z" fill="white"/>
<path d="M63.5393 250.74L67.1055 257.818L75.0174 258.288L67.9392 261.854L67.4694 269.766L63.9032 262.688L55.9913 262.218L63.0695 258.652L63.5393 250.74Z" fill="white"/>
<path d="M215.361 262.134L217.943 267.259L223.673 267.599L218.547 270.182L218.207 275.911L215.624 270.786L209.895 270.445L215.021 267.863L215.361 262.134Z" fill="white"/>
<path d="M262.625 169.17L267.785 176.734L276.916 176.069L269.353 181.229L270.018 190.36L264.858 182.797L255.727 183.461L263.29 178.302L262.625 169.17Z" fill="white"/>
</g>
<defs>
<filter id="filter0_f_3007_11359" x="150.374" y="3.77282" width="136.567" height="288.755" filterUnits="userSpaceOnUse" color-interpolation-filters="sRGB">
<feFlood flood-opacity="0" result="BackgroundImageFix"/>
<feBlend mode="normal" in="SourceGraphic" in2="BackgroundImageFix" result="shape"/>
<feGaussianBlur stdDeviation="13.6832" result="effect1_foregroundBlur_3007_11359"/>
</filter>
<filter id="filter1_f_3007_11359" x="38.6912" y="120.167" width="253.71" height="185.944" filterUnits="userSpaceOnUse" color-interpolation-filters="sRGB">
<feFlood flood-opacity="0" result="BackgroundImageFix"/>
<feBlend mode="normal" in="SourceGraphic" in2="BackgroundImageFix" result="shape"/>
<feGaussianBlur stdDeviation="13.6832" result="effect1_foregroundBlur_3007_11359"/>
</filter>
<filter id="filter2_i_3007_11359" x="59.048" y="156.121" width="199.459" height="133.449" filterUnits="userSpaceOnUse" color-interpolation-filters="sRGB">
<feFlood flood-opacity="0" result="BackgroundImageFix"/>
<feBlend mode="normal" in="SourceGraphic" in2="BackgroundImageFix" result="shape"/>
<feColorMatrix in="SourceAlpha" type="matrix" values="0 0 0 0 0 0 0 0 0 0 0 0 0 0 0 0 0 0 127 0" result="hardAlpha"/>
<feOffset dx="-0.334961" dy="-3.68457"/>
<feGaussianBlur stdDeviation="3.46685"/>
<feComposite in2="hardAlpha" operator="arithmetic" k2="-1" k3="1"/>
<feColorMatrix type="matrix" values="0 0 0 0 1 0 0 0 0 1 0 0 0 0 1 0 0 0 0.5 0"/>
<feBlend mode="normal" in2="shape" result="effect1_innerShadow_3007_11359"/>
</filter>
<filter id="filter3_i_3007_11359" x="175.41" y="35.4528" width="78.7379" height="134.816" filterUnits="userSpaceOnUse" color-interpolation-filters="sRGB">
<feFlood flood-opacity="0" result="BackgroundImageFix"/>
<feBlend mode="normal" in="SourceGraphic" in2="BackgroundImageFix" result="shape"/>
<feColorMatrix in="SourceAlpha" type="matrix" values="0 0 0 0 0 0 0 0 0 0 0 0 0 0 0 0 0 0 127 0" result="hardAlpha"/>
<feOffset dx="-1.33984" dy="-1.6748"/>
<feGaussianBlur stdDeviation="2.84717"/>
<feComposite in2="hardAlpha" operator="arithmetic" k2="-1" k3="1"/>
<feColorMatrix type="matrix" values="0 0 0 0 0.034913 0 0 0 0 0.344521 0 0 0 0 0.963736 0 0 0 0.6 0"/>
<feBlend mode="normal" in2="shape" result="effect1_innerShadow_3007_11359"/>
</filter>
<filter id="filter4_ii_3007_11359" x="58.878" y="155.948" width="199.459" height="140.148" filterUnits="userSpaceOnUse" color-interpolation-filters="sRGB">
<feFlood flood-opacity="0" result="BackgroundImageFix"/>
<feBlend mode="normal" in="SourceGraphic" in2="BackgroundImageFix" result="shape"/>
<feColorMatrix in="SourceAlpha" type="matrix" values="0 0 0 0 0 0 0 0 0 0 0 0 0 0 0 0 0 0 127 0" result="hardAlpha"/>
<feOffset dx="-0.334961" dy="-3.68457"/>
<feGaussianBlur stdDeviation="3.46685"/>
<feComposite in2="hardAlpha" operator="arithmetic" k2="-1" k3="1"/>
<feColorMatrix type="matrix" values="0 0 0 0 1 0 0 0 0 1 0 0 0 0 1 0 0 0 0.5 0"/>
<feBlend mode="normal" in2="shape" result="effect1_innerShadow_3007_11359"/>
<feColorMatrix in="SourceAlpha" type="matrix" values="0 0 0 0 0 0 0 0 0 0 0 0 0 0 0 0 0 0 127 0" result="hardAlpha"/>
<feOffset dy="6.69922"/>
<feGaussianBlur stdDeviation="3.51709"/>
<feComposite in2="hardAlpha" operator="arithmetic" k2="-1" k3="1"/>
<feColorMatrix type="matrix" values="0 0 0 0 1 0 0 0 0 1 0 0 0 0 1 0 0 0 1 0"/>
<feBlend mode="normal" in2="effect1_innerShadow_3007_11359" result="effect2_innerShadow_3007_11359"/>
</filter>
<linearGradient id="paint0_linear_3007_11359" x1="137.019" y1="205.718" x2="221.407" y2="294.058" gradientUnits="userSpaceOnUse">
<stop stop-color="#246CE7"/>
<stop offset="1" stop-color="#74B7FF"/>
</linearGradient>
<linearGradient id="paint1_linear_3007_11359" x1="199.114" y1="197.891" x2="186.172" y2="287.903" gradientUnits="userSpaceOnUse">
<stop stop-color="#FBFDFF"/>
<stop offset="1" stop-color="#64B1F7"/>
</linearGradient>
<linearGradient id="paint2_linear_3007_11359" x1="196.866" y1="198.333" x2="183.305" y2="288.016" gradientUnits="userSpaceOnUse">
<stop stop-color="#E0EFFF"/>
<stop offset="1" stop-color="#64B1F7"/>
</linearGradient>
<linearGradient id="paint3_linear_3007_11359" x1="165.832" y1="216.048" x2="129.705" y2="327.905" gradientUnits="userSpaceOnUse">
<stop stop-color="#094584"/>
<stop offset="1" stop-color="#007BFF"/>
</linearGradient>
</defs>
</svg>
